<?xml version="1.0" standalone="no"?>
<!DOCTYPE svg PUBLIC "-//W3C//DTD SVG 1.1//EN" "http://www.w3.org/Graphics/SVG/1.1/DTD/svg11.dtd" >
<svg xmlns="http://www.w3.org/2000/svg">
<metadata>
This is a custom SVG webfont generated by Font Squirrel.
Copyright   : Copyright  1990 2002 Adobe Systems Incorporated  All Rights Reserved  1981 2002 Heidelberger Druckmaschinen AG All rights reserved
Designer    : Linotype Staff
Foundry URL : httpwwwadobecomtype
</metadata>
<defs>
<font id="HelveticaNeueLTStd67MdCn" horiz-adv-x="436" >
<font-face units-per-em="2048" ascent="1462" descent="-586" />
<missing-glyph horiz-adv-x="471" />
<glyph unicode="&#xfb01;" horiz-adv-x="983" d="M20 901v156h148v98q0 147 66.5 205.5t201.5 58.5q70 0 117 -6v-162h-59q-115 0 -115 -100v-94h174v-156h-174v-901h-211v901h-148zM659 0v1057h211v-1057h-211zM659 1206v213h211v-213h-211z" />
<glyph unicode="&#xfb02;" horiz-adv-x="983" d="M20 901v156h148v98q0 147 66.5 205.5t201.5 58.5q70 0 117 -6v-162h-59q-115 0 -115 -100v-94h174v-156h-174v-901h-211v901h-148zM659 0v1403h211v-1403h-211z" />
<glyph unicode=" "  horiz-adv-x="471" />
<glyph unicode="&#x09;" horiz-adv-x="471" />
<glyph unicode="&#xa0;" horiz-adv-x="471" />
<glyph unicode="!" horiz-adv-x="544" d="M162 0v223h223v-223h-223zM162 958v445h223v-445l-33 -581h-157z" />
<glyph unicode="&#x22;" horiz-adv-x="835" d="M150 842v561h169v-561h-169zM518 842v561h170v-561h-170z" />
<glyph unicode="#" horiz-adv-x="942" d="M-6 393v146h190l39 286h-172v146h193l55 393h164l-55 -393h206l56 393h164l-56 -393h172v-146h-190l-41 -286h174v-146h-193l-55 -393h-164l56 393h-209l-56 -393h-161l55 393h-172zM348 539h209l39 286h-209z" />
<glyph unicode="$" horiz-adv-x="942" d="M31 389v31h225v-31q0 -113 39 -172t129 -76v457l-80 29q-156 57 -224.5 145t-68.5 236q0 166 107.5 275.5t265.5 109.5v137h88v-137q86 0 152.5 -25t106.5 -62.5t66.5 -88t37 -96.5t10.5 -91v-26h-223v26q0 176 -150 193v-435l123 -43q143 -53 209.5 -138t66.5 -224 q0 -197 -104.5 -299t-294.5 -111v-170h-88v170q-393 21 -393 416zM274 1026q0 -137 150 -205v402q-63 -6 -106.5 -57.5t-43.5 -139.5zM512 141q84 12 130 69.5t46 127.5q0 94 -42 146.5t-134 80.5v-424z" />
<glyph unicode="%" horiz-adv-x="1490" d="M72 1015q0 206 70.5 292t197.5 86t198.5 -86t71.5 -292t-71.5 -292t-198.5 -86t-197.5 86t-70.5 292zM240 1013.5q0 -141.5 20.5 -197.5t79.5 -56t79.5 56t20.5 197.5t-20.5 199t-79.5 57.5t-79.5 -57.5t-20.5 -199zM354 -27l623 1420h151l-626 -1420h-148zM883 350 q0 207 70.5 292t198.5 85t198.5 -85t70.5 -292t-70.5 -292t-198.5 -85t-198.5 85t-70.5 292zM1053 350.5q0 -141.5 20.5 -199t78.5 -57.5t79.5 57.5t21.5 199t-21.5 198.5t-79.5 57t-78.5 -57t-20.5 -198.5z" />
<glyph unicode="&#x26;" horiz-adv-x="1128" d="M41 360q0 219 197 367l88 68l-54 77q-90 141 -90 232q0 145 93.5 222t240.5 77q47 0 95 -12.5t99.5 -41t83 -88t31.5 -143.5q0 -166 -170 -295l-73 -53l245 -346q55 92 56 215v27h176v-17q0 -78 -26.5 -184.5t-92.5 -196.5l190 -268h-237l-84 121q-162 -147 -354 -148 q-115 0 -200 38t-130 99.5t-64.5 125t-19.5 124.5zM254 375q0 -94 69.5 -158.5t168.5 -64.5q119 0 219 108l-287 402l-41 -37q-129 -105 -129 -250zM371 1137q0 -82 84 -195l30 -41l50 45q102 98 102 180q0 61 -36 96t-97 35q-51 0 -92 -28.5t-41 -91.5z" />
<glyph unicode="'" horiz-adv-x="471" d="M152 842v561h167v-561h-167z" />
<glyph unicode="(" horiz-adv-x="507" d="M74 520q0 254 81 485.5t207 397.5h148q-225 -375 -225 -883q0 -236 56 -471t169 -411h-152q-127 166 -205.5 397t-78.5 485z" />
<glyph unicode=")" horiz-adv-x="507" d="M0 -363q223 377 223 883q0 238 -55 473.5t-168 409.5h152q125 -164 204.5 -395.5t79.5 -487.5q0 -252 -82 -483.5t-207 -398.5z" />
<glyph unicode="*" horiz-adv-x="727" d="M31 1114l45 131l223 -88v246h133v-244l219 86l45 -131l-225 -63l154 -203l-109 -86l-149 207l-146 -207l-110 86l149 203z" />
<glyph unicode="+" horiz-adv-x="1179" d="M92 414v168h414v413h168v-413h413v-168h-413v-414h-168v414h-414z" />
<glyph unicode="," horiz-adv-x="471" d="M123 0v260h225v-260q0 -125 -51 -202t-174 -101v115q98 25 98 159v29h-98z" />
<glyph unicode="-" horiz-adv-x="690" d="M88 467v201h516v-201h-516z" />
<glyph unicode="." horiz-adv-x="471" d="M123 0v260h225v-260h-225z" />
<glyph unicode="/" horiz-adv-x="581" d="M-20 -27l446 1459h176l-446 -1459h-176z" />
<glyph unicode="0" horiz-adv-x="942" d="M55 682q0 389 103.5 550t313.5 161t313.5 -161t103.5 -550t-103.5 -549t-313.5 -160t-313.5 160t-103.5 549zM279 682q0 -311 40.5 -432t152.5 -121t152 121t40 432t-40 432t-152 121t-152.5 -121t-40.5 -432z" />
<glyph unicode="1" horiz-adv-x="942" d="M119 1010v145h20q281 0 328 209v29h164v-1393h-223v1010h-289z" />
<glyph unicode="2" horiz-adv-x="942" d="M66 0q0 123 31.5 223.5t82.5 170t115 127.5l125 110q61 51 112.5 105.5t84 128t32.5 159.5q0 92 -42 151.5t-132 59.5q-195 0 -194 -291h-211q0 449 409 449q203 0 298 -103.5t95 -269.5q0 -129 -47 -229.5t-119.5 -167t-148.5 -126t-144.5 -138t-97.5 -171.5h564v-188 h-813z" />
<glyph unicode="3" horiz-adv-x="942" d="M61 387h211q0 -109 44 -183.5t149 -74.5q98 0 146 69.5t48 180.5q0 135 -51 197.5t-176 62.5h-86v158h80q201 0 201 237q0 84 -40 142.5t-120 58.5q-178 0 -178 -244h-213q0 197 101.5 299.5t299.5 102.5q70 0 130.5 -17.5t117.5 -55.5t92 -110.5t35 -173.5 q0 -113 -61.5 -200.5t-161.5 -104.5v-6q113 -10 183.5 -95t70.5 -227q0 -211 -106.5 -320.5t-317.5 -109.5q-398 0 -398 414z" />
<glyph unicode="4" horiz-adv-x="942" d="M41 313v193l481 887h230v-901h151v-179h-151v-313h-213v313h-498zM221 492h318v573h-4z" />
<glyph unicode="5" horiz-adv-x="942" d="M63 346v29h211v-37q0 -84 47.5 -140.5t137.5 -56.5q199 0 198 318q0 297 -188 297q-70 0 -118 -35t-64 -94l-199 8l70 729h669v-178h-503l-45 -367l4 -4q96 109 233 109q104 0 179 -40t114 -109.5t55.5 -145.5t16.5 -164q0 -223 -106.5 -357.5t-321.5 -134.5 q-186 0 -288 95.5t-102 277.5z" />
<glyph unicode="6" horiz-adv-x="942" d="M49 639q0 170 18.5 295t64.5 234.5t137 167t225 57.5q375 0 374 -338h-223q0 70 -37 125t-112.5 55t-123.5 -43t-67.5 -125t-26 -148.5t-6.5 -162.5l7 -4q82 147 272 147q150 0 247 -107.5t97 -308.5q0 -510 -428 -510q-127 0 -212 46.5t-129 139.5t-60.5 204.5 t-16.5 275.5zM293 418q0 -127 49 -208t143 -81q184 0 185 299q0 301 -185 301q-113 0 -152.5 -82t-39.5 -229z" />
<glyph unicode="7" horiz-adv-x="942" d="M59 1163v201h826v-176q-168 -219 -292 -549t-147 -639h-235q23 299 153 619.5t304 543.5h-609z" />
<glyph unicode="8" horiz-adv-x="942" d="M51 389q0 150 64.5 238t173.5 110v4q-193 68 -193 301q0 162 100.5 256.5t275.5 94.5t275.5 -94.5t100.5 -256.5q0 -233 -193 -301v-4q106 -23 172 -110.5t66 -237.5q0 -416 -421 -416t-421 416zM274 393q0 -264 197 -264t197 264q0 123 -43 193.5t-153 70.5t-154 -70.5 t-44 -193.5zM297 1026q0 -213 175 -213t175 213q0 209 -175 209t-175 -209z" />
<glyph unicode="9" horiz-adv-x="942" d="M49 881q0 512 426 512q129 0 214 -46.5t128 -140.5t60.5 -205.5t17.5 -275.5q0 -168 -18.5 -294t-65.5 -235.5t-137 -166t-223 -56.5q-377 0 -377 338h225q0 -72 36 -127t114 -55q74 0 121.5 44t68 125t26 148.5t5.5 163.5l-6 4q-80 -147 -271 -147q-150 0 -247 106.5 t-97 307.5zM272 936q0 -301 187 -301q111 0 151.5 83t40.5 228q0 127 -49 208t-143 81q-187 0 -187 -299z" />
<glyph unicode=":" horiz-adv-x="471" d="M123 0v260h225v-260h-225zM123 748v260h225v-260h-225z" />
<glyph unicode=";" horiz-adv-x="471" d="M123 0v260h225v-260q0 -125 -51 -202t-174 -101v115q98 25 98 159v29h-98zM123 748v260h225v-260h-225z" />
<glyph unicode="&#x3c;" horiz-adv-x="1179" d="M92 424v145l995 445v-168l-794 -348l794 -348v-170z" />
<glyph unicode="=" horiz-adv-x="1179" d="M92 209v168h995v-168h-995zM92 616v170h995v-170h-995z" />
<glyph unicode="&#x3e;" horiz-adv-x="1179" d="M92 -20v170l795 348l-795 348v168l995 -445v-145z" />
<glyph unicode="?" horiz-adv-x="909" d="M70 985q0 201 93 324t294 123q182 0 283.5 -98.5t101.5 -278.5q0 -94 -32 -170t-77 -126l-91 -96.5t-78 -96.5t-32 -105v-84h-200v119q0 78 29.5 138t70.5 100l84 81q43 41 71.5 100.5t28.5 139.5q0 207 -157 207q-178 0 -178 -277h-211zM319 0v223h224v-223h-224z" />
<glyph unicode="@" horiz-adv-x="1572" d="M57 705q0 309 212 518t548 209q301 0 500 -168t199 -433q0 -113 -33 -209t-87.5 -159.5t-122 -108.5t-133 -64.5t-124.5 -19.5q-70 0 -104.5 31t-32.5 84h-5q-104 -115 -243 -115q-115 0 -194 87t-79 231q0 209 133.5 367.5t305.5 158.5q152 0 225 -151l37 116h141 l-147 -530q-23 -86 -23 -96q0 -43 66 -43q86 0 163.5 119.5t77.5 277.5q0 203 -153.5 335t-366.5 132q-252 0 -416.5 -171t-164.5 -407q0 -252 165.5 -409.5t401.5 -157.5q307 0 485 174h164q-82 -150 -250 -240t-399 -90q-324 0 -535 198t-211 534zM526 614q0 -94 45 -146 t140 -52q96 0 174 124t78 240q0 188 -158 189q-117 0 -198 -114t-81 -241z" />
<glyph unicode="A" horiz-adv-x="1019" d="M-18 0l399 1403h287l370 -1403h-233l-88 344h-410l-90 -344h-235zM348 522h332l-162 692h-2z" />
<glyph unicode="B" horiz-adv-x="1054" d="M117 0v1403h452q170 0 274.5 -82t104.5 -258q0 -252 -207 -318v-4q121 -23 186.5 -105.5t65.5 -252.5q0 -174 -116.5 -278.5t-315.5 -104.5h-444zM340 170h223q100 0 152.5 63.5t52.5 184.5q0 111 -60.5 174t-158.5 63h-209v-485zM340 811h176q100 0 153.5 60.5 t53.5 162.5q0 117 -58.5 159t-166.5 42h-158v-424z" />
<glyph unicode="C" horiz-adv-x="1019" d="M82 702.5q0 387.5 103.5 558.5t363.5 171q422 0 422 -441v-26h-223v24q0 117 -46 197q-43 76 -145 76h-10q-86 0 -136.5 -43t-77 -166t-26.5 -344q0 -328 55.5 -448t184.5 -120q209 0 209 338v25h223v-31q0 -100 -21.5 -185t-69.5 -159t-135 -115t-206 -41 q-260 0 -362.5 171t-102.5 558.5z" />
<glyph unicode="D" horiz-adv-x="1091" d="M117 0v1403h399q129 0 220 -34t144.5 -91t83 -151.5t38 -190.5t8.5 -233.5t-8.5 -234.5t-38 -191.5t-83 -150.5t-144.5 -91t-220 -35h-399zM340 170h184q141 0 201.5 115.5t60.5 416.5q0 297 -58 415t-204 118h-184v-1065z" />
<glyph unicode="E" horiz-adv-x="944" d="M117 0v1403h757v-189h-534v-389h504v-188h-504v-449h551v-188h-774z" />
<glyph unicode="F" horiz-adv-x="909" d="M117 0v1403h747v-189h-524v-389h494v-188h-494v-637h-223z" />
<glyph unicode="G" horiz-adv-x="1054" d="M82 702q0 377 112.5 553.5t354.5 176.5q100 0 177 -31t120 -75t69.5 -102.5t34.5 -105.5t8 -92v-25h-210v33q0 92 -46.5 160t-150.5 68q-129 0 -186.5 -117t-57.5 -436q0 -328 53.5 -448t171.5 -120h6q125 0 176 98q52 99 52 330h-236v170h449v-739h-168v164h-4 q-47 -100 -118 -145.5t-189 -45.5q-227 0 -322.5 173t-95.5 556z" />
<glyph unicode="H" horiz-adv-x="1091" d="M117 0v1403h223v-561h414v561h223v-1403h-223v653h-414v-653h-223z" />
<glyph unicode="I" d="M106 0v1403h224v-1403h-224z" />
<glyph unicode="J" horiz-adv-x="872" d="M31 332v90h213v-68q0 -100 31.5 -155.5t117.5 -57.5q43 0 73 16.5t44 39t22.5 66.5t9.5 73t1 84v983h223v-1016q0 -219 -99 -317q-97 -96 -271 -97h-7q-350 3 -358 359z" />
<glyph unicode="K" horiz-adv-x="1019" d="M117 0v1403h223v-610h4l424 610h246l-404 -592l447 -811h-252l-340 631l-125 -176v-455h-223z" />
<glyph unicode="L" horiz-adv-x="872" d="M90 0v1403h225v-1215h543v-188h-768z" />
<glyph unicode="M" horiz-adv-x="1419" d="M117 0v1403h350l246 -1038h4l244 1038h342v-1403h-211v1167h-5l-282 -1167h-191l-282 1167h-4v-1167h-211z" />
<glyph unicode="N" horiz-adv-x="1128" d="M117 0v1403h272l408 -1045h4v1045h211v-1403h-273l-407 1073h-4v-1073h-211z" />
<glyph unicode="O" horiz-adv-x="1091" d="M82 701.5q0 377.5 111.5 554t353 176.5t352.5 -176.5t111 -554t-111 -553t-352.5 -175.5t-353 175.5t-111.5 553zM307 709q0 -176 17.5 -292t53.5 -174.5t75 -80t94 -21.5t94 21.5t75 80t53 174t17 292.5q0 170 -17 283.5t-53 170t-75 78t-94 21.5t-94 -21.5t-75 -78 t-53.5 -170t-17.5 -283.5z" />
<glyph unicode="P" horiz-adv-x="983" d="M117 0v1403h444q195 0 291 -109.5t96 -298.5q0 -190 -108.5 -302.5t-302.5 -112.5h-197v-580h-223zM340 750h160q98 0 160.5 58t62.5 183q0 119 -55.5 181.5t-184.5 62.5h-143v-485z" />
<glyph unicode="Q" horiz-adv-x="1091" d="M82 701.5q0 377.5 111.5 554t353 176.5t352.5 -176.5t111 -554t-109 -556.5l143 -151l-135 -119l-143 145q-80 -47 -219 -47q-242 0 -353.5 175.5t-111.5 553zM307 709q0 -176 17.5 -292t53.5 -174.5t75 -80t94 -21.5q45 0 80 15l-107 104l129 127l92 -92q45 123 45 414 q0 170 -17 283.5t-53 170t-75 78t-94 21.5t-94 -21.5t-75 -78t-53.5 -170t-17.5 -283.5z" />
<glyph unicode="R" horiz-adv-x="1054" d="M117 1403h495q158 0 256.5 -87t98.5 -274q0 -139 -60.5 -233t-173.5 -111v-4q109 -10 162 -76.5t59 -209.5q4 -219 7 -285q4 -82 67 -123h-254q-27 33 -37 123q-4 39 -5 80t-2 96t-3 90q-4 119 -48 170t-157 51h-182v-610h-223v1403zM340 778h178q106 0 165.5 61.5 t59.5 168.5q0 227 -213 227h-190v-457z" />
<glyph unicode="S" horiz-adv-x="1019" d="M66 401v33h223v-35q0 -258 229 -258q100 0 156.5 60.5t56.5 144.5q0 106 -50 162.5t-151 87.5l-153 53q-156 59 -224.5 147.5t-68.5 237.5q0 188 117.5 293t318.5 105q102 0 179 -26t118 -62.5t65.5 -90t30 -97.5t5.5 -95v-31h-224v29q0 203 -196 203q-80 0 -134.5 -49.5 t-54.5 -153.5q0 -88 48.5 -141.5t160.5 -96.5l152 -55q150 -53 218 -140t68 -231q0 -422 -464 -422q-123 0 -212.5 38t-133.5 103.5t-62 135t-18 151.5z" />
<glyph unicode="T" horiz-adv-x="909" d="M12 1214v189h887v-189h-330v-1214h-223v1214h-334z" />
<glyph unicode="U" horiz-adv-x="1054" d="M98 416v987h224v-1006q0 -256 206 -256q205 0 205 256v1006h225v-987q0 -236 -109.5 -339.5t-319.5 -103.5t-320.5 103.5t-110.5 339.5z" />
<glyph unicode="V" horiz-adv-x="944" d="M-12 1403h237l240 -1120h2l252 1120h239l-354 -1403h-285z" />
<glyph unicode="W" horiz-adv-x="1456" d="M12 1403h226l184 -1090h4l186 1090h236l188 -1096h4l183 1096h223l-281 -1403h-258l-182 1057h-4l-178 -1057h-260z" />
<glyph unicode="X" horiz-adv-x="983" d="M0 0l369 713l-338 690h248l225 -465l219 465h242l-340 -690l358 -713h-248l-243 508l-250 -508h-242z" />
<glyph unicode="Y" horiz-adv-x="944" d="M-8 1403h250l235 -604l242 604h235l-376 -854v-549h-224v549z" />
<glyph unicode="Z" horiz-adv-x="909" d="M35 0v176l588 1038h-551v189h796v-189l-587 -1026h593v-188h-839z" />
<glyph unicode="[" horiz-adv-x="544" d="M152 -362v1765h399v-156h-199v-1452h199v-157h-399z" />
<glyph unicode="\" horiz-adv-x="581" d="M-20 1432h176l446 -1459h-176z" />
<glyph unicode="]" horiz-adv-x="544" d="M-4 -205h199v1452h-199v156h399v-1765h-399v157z" />
<glyph unicode="^" horiz-adv-x="1179" d="M113 551l401 813h150l403 -813h-168l-309 645l-309 -645h-168z" />
<glyph unicode="_" horiz-adv-x="983" d="M0 -147h983v-99h-983v99z" />
<glyph unicode="`" d="M-27 1479h236l117 -283h-146z" />
<glyph unicode="a" horiz-adv-x="909" d="M61 270q0 160 58.5 225.5t187.5 106.5l164 45q68 16 96.5 44t28.5 91q0 78 -33 118t-112 40q-96 0 -129 -54.5t-33 -148.5h-201q0 174 85 261t288 87q152 0 244 -63.5t92 -196.5v-604q0 -31 15 -53.5t38.5 -22.5t36.5 7v-138q-55 -27 -105 -26q-170 0 -178 139h-4 q-84 -154 -264 -154q-129 0 -202 75t-73 222zM272 289q0 -70 35 -115t99 -45q94 0 142 66.5t48 185.5v178q-31 -27 -127 -59.5t-109 -38.5q-88 -43 -88 -172z" />
<glyph unicode="b" horiz-adv-x="944" d="M102 0v1403h213v-469h4q61 152 240 151q68 0 120 -19t102 -73.5t77 -167t27 -282.5q0 -281 -83 -425.5t-263 -144.5q-170 0 -232 156h-4v-129h-201zM303 516q0 -186 38 -280.5t140 -94.5q104 0 142.5 97.5t38.5 293.5q0 215 -37 299t-129 84q-115 0 -154 -95t-39 -304z " />
<glyph unicode="c" horiz-adv-x="872" d="M61 529.5q0 267.5 88.5 411.5t305.5 144q6 0 12 1q83 0 146 -26q69 -28 107 -68t61.5 -95t29.5 -99t6 -91h-211q0 92 -34 157q-33 64 -112 64h-5q-106 0 -144.5 -100.5t-38.5 -299t38 -299t145 -100.5h5q80 0 117 65q38 67 37 191h201q-10 -203 -92 -307.5t-268 -104.5 q-217 0 -305.5 144.5t-88.5 412z" />
<glyph unicode="d" horiz-adv-x="944" d="M61 543q0 170 27 282.5t77 167t102 73.5t120 19q178 0 240 -151h4v469h213v-1403h-201v129h-4q-63 -156 -231 -156q-182 0 -264.5 144.5t-82.5 425.5zM285 532q0 -197 37.5 -294t142.5 -97q100 0 139 94.5t39 280.5q0 209 -39 304t-153 95q-92 0 -129 -84t-37 -299z" />
<glyph unicode="e" horiz-adv-x="909" d="M74 514q0 115 15 207t54 180t121 136t201 48q209 0 291 -116.5t82 -354.5v-112h-553v-62q0 -63 6 -112t22.5 -101.5t54 -80t95.5 -27.5q53 0 89 26.5t51 68.5t21.5 75t6.5 65h200q0 -176 -99 -278.5t-271 -102.5q-61 0 -108.5 8.5t-102.5 41t-91 89t-60.5 158 t-24.5 244.5zM285 647h340v57q0 236 -162 236q-94 0 -136 -77t-42 -195v-21z" />
<glyph unicode="f" horiz-adv-x="544" d="M20 901v156h148v98q0 147 66.5 205.5t201.5 58.5q70 0 117 -6v-162h-59q-115 0 -115 -100v-94h174v-156h-174v-901h-211v901h-148z" />
<glyph unicode="g" horiz-adv-x="944" d="M86 541q0 104 11.5 186t43 170t104 138t177.5 50q90 0 153.5 -47t79.5 -110h4v129h201v-1006q0 -414 -395 -413q-111 0 -186.5 28.5t-108.5 75.5t-44 87t-11 81h200q0 -51 42 -89t110 -38q84 0 132 53t48 146v172h-4q-29 -68 -95.5 -107t-144.5 -39q-317 1 -317 533z M299 563q0 -68 2 -111.5t10 -101t25.5 -91.5t49.5 -58.5t79 -24.5q57 0 97 34t56.5 95.5t22.5 116.5t6 131q0 362 -170 362q-55 0 -92 -26.5t-54.5 -77.5t-24.5 -108.5t-7 -139.5z" />
<glyph unicode="h" horiz-adv-x="944" d="M102 0v1403h213v-459l4 -4q96 145 261 145q129 0 196.5 -66.5t67.5 -219.5v-799h-213v725q0 102 -33 146t-115 44q-70 0 -119 -53t-49 -151v-711h-213z" />
<glyph unicode="i" d="M113 0v1057h211v-1057h-211zM113 1206v213h211v-213h-211z" />
<glyph unicode="j" d="M-47 -193h49q61 0 86 31t25 113v1106h211v-1127q0 -160 -67 -226t-212 -66q-45 0 -92 6v163zM113 1206v213h211v-213h-211z" />
<glyph unicode="k" horiz-adv-x="909" d="M102 0v1403h213v-789h4l320 443l246 2l-320 -408l361 -651h-232l-260 481l-119 -145v-336h-213z" />
<glyph unicode="l" d="M113 0v1403h211v-1403h-211z" />
<glyph unicode="m" horiz-adv-x="1454" d="M113 0v1057h200v-123h6q39 72 108 111.5t144 39.5q190 0 246 -161q96 162 268 161q258 0 258 -280v-805h-213v725q0 102 -30.5 146t-95.5 44q-72 0 -121 -53t-49 -151v-711h-213v725q0 102 -31 146t-98 44q-70 0 -119 -53t-49 -151v-711h-211z" />
<glyph unicode="n" horiz-adv-x="944" d="M102 0v1057h201v-123h6q39 72 111 111.5t160 39.5q129 0 196.5 -66.5t67.5 -219.5v-799h-213v725q0 102 -33 146t-115 44q-70 0 -119 -53t-49 -151v-711h-213z" />
<glyph unicode="o" horiz-adv-x="909" d="M61 528q0 268 88.5 412.5t305.5 144.5t306 -144t89 -413q0 -555 -395 -555q-394 0 -394 555zM272 528q0 -215 37 -307t146 -92q111 0 146.5 92t35.5 307q0 199 -37 299.5t-145 100.5q-106 0 -144.5 -100.5t-38.5 -299.5z" />
<glyph unicode="p" horiz-adv-x="944" d="M102 -346v1403h201v-129h4q72 158 238 157q340 0 340 -569q0 -160 -30 -272.5t-81 -168t-103.5 -79t-111.5 -23.5q-178 0 -240 150h-4v-469h-213zM303 541q0 -207 37 -303.5t143 -96.5q94 0 136.5 85t42.5 298q0 197 -38 294t-143 97q-102 0 -140 -94t-38 -280z" />
<glyph unicode="q" horiz-adv-x="944" d="M61 516q0 281 82 425t265 144q168 0 231 -157h4v129h201v-1403h-213v469h-4q-61 -150 -242 -150q-143 0 -233.5 123t-90.5 420zM285 524q0 -207 41 -295t125 -88q115 0 153.5 95.5t38.5 304.5q0 186 -39 280t-139 94q-104 0 -142 -97t-38 -294z" />
<glyph unicode="r" horiz-adv-x="618" d="M102 1057h213v-164h4q76 193 246 192q23 0 49 -8v-217q-47 12 -88 12q-88 0 -149.5 -53t-61.5 -186v-633h-213v1057z" />
<glyph unicode="s" horiz-adv-x="835" d="M55 301v39h189v-33q0 -94 37.5 -141t128.5 -47q172 0 172 153q0 117 -115 156l-174 61q-121 41 -173 110t-52 196q0 145 96 217.5t264 72.5q184 0 258 -85t74 -203v-47h-201v26q0 164 -141 164q-68 0 -109 -34t-41 -103q0 -61 31 -94t119 -62l135 -47q119 -41 174 -111.5 t55 -193.5q0 -162 -104.5 -242t-274.5 -80q-190 0 -269 82t-79 246z" />
<glyph unicode="t" horiz-adv-x="544" d="M8 901v156h146v301h213v-301h172v-156h-172v-631q0 -63 20.5 -87.5t75.5 -24.5q47 0 76 6v-158q-68 -18 -170 -18q-117 0 -166 51t-49 205v657h-146z" />
<glyph unicode="u" horiz-adv-x="944" d="M102 319v738h213v-758q0 -84 36 -121t107.5 -37t122 46t50.5 132v738h213v-1057h-201v123h-6q-39 -70 -110.5 -110t-159.5 -40q-129 0 -197 75.5t-68 270.5z" />
<glyph unicode="v" horiz-adv-x="835" d="M14 1057h228l184 -834h4l168 834h225l-278 -1057h-248z" />
<glyph unicode="w" horiz-adv-x="1345" d="M29 1057h221l147 -834h4l158 834h240l157 -834h2l148 834h211l-242 -1057h-237l-166 821h-4l-152 -821h-246z" />
<glyph unicode="x" horiz-adv-x="835" d="M6 0l289 549l-272 508h231l164 -348l174 348h227l-274 -508l286 -549h-229l-184 391l-187 -391h-225z" />
<glyph unicode="y" horiz-adv-x="835" d="M16 1057h228l182 -793h4l170 793h221l-291 -1096q-61 -211 -130.5 -269.5t-237.5 -53.5q-31 0 -86 8v170q47 -8 69 -9q59 0 92 17.5t52 64.5l28 86z" />
<glyph unicode="z" horiz-adv-x="798" d="M49 0v166l463 713h-436v178h676v-174l-445 -705h445v-178h-703z" />
<glyph unicode="{" horiz-adv-x="544" d="M14 457v129q63 4 110.5 63.5t47.5 136.5v361q0 119 64.5 187.5t154.5 68.5h141v-121h-65q-51 0 -72.5 -35t-21.5 -100v-361q0 -121 -60.5 -185t-119.5 -79v-4q59 -12 119.5 -77.5t60.5 -184.5v-360q0 -68 21.5 -102t72.5 -34h65v-122h-141q-90 0 -154.5 69.5t-64.5 188.5 v360q0 78 -47.5 137.5t-110.5 63.5z" />
<glyph unicode="|" d="M133 -27v1459h170v-1459h-170z" />
<glyph unicode="}" horiz-adv-x="544" d="M14 -240h64q53 0 73.5 34t20.5 102v360q0 119 61.5 184.5t120.5 77.5v4q-59 14 -120.5 79t-61.5 185v361q0 66 -20.5 100.5t-73.5 34.5h-64v121h142q90 0 153.5 -68.5t63.5 -187.5v-361q0 -78 47 -137t112 -63v-129q-66 -4 -112.5 -63.5t-46.5 -137.5v-360 q0 -119 -63.5 -188.5t-153.5 -69.5h-142v122z" />
<glyph unicode="~" horiz-adv-x="1179" d="M135 481q41 84 107.5 128t138.5 44q80 0 229 -73q145 -68 191 -68q88 0 172 152l71 -150q-100 -172 -245 -172q-80 0 -230 74q-145 68 -190 67q-88 0 -172 -151z" />
<glyph unicode="&#xa1;" horiz-adv-x="544" d="M162 98l33 582h157l33 -582v-444h-223v444zM162 834v223h223v-223h-223z" />
<glyph unicode="&#xa2;" horiz-adv-x="942" d="M94 528q0 254 78 397.5t268 159.5v148h86v-148q98 -6 167 -47t100.5 -104.5t44 -117.5t12.5 -109h-213q0 199 -111 221v-799q123 37 123 256h201q-12 -193 -85 -297t-239 -115v-174h-86v174q-190 14 -268 157.5t-78 397.5zM307 528q0 -172 27.5 -271t105.5 -128v799 q-78 -23 -105.5 -123.5t-27.5 -276.5z" />
<glyph unicode="&#xa3;" horiz-adv-x="942" d="M25 139l34 27q205 147 205 323q0 55 -37 129h-192v136h137l-35 67q-63 123 -63 219q0 141 105.5 247t299.5 106q217 0 317.5 -109.5t100.5 -273.5v-23h-213v21q0 86 -44 156.5t-151 70.5q-88 0 -140 -46t-52 -124q0 -102 63 -221l46 -90h325v-136h-274q18 -53 18 -114 q0 -104 -59.5 -181t-169.5 -159l4 -8q74 45 143 45q39 0 126 -30t120 -30q57 0 147 52l60 30l74 -153l-39 -25q-122 -72 -243 -72h-7q-66 2 -176.5 39t-165.5 37q-72 0 -187 -61z" />
<glyph unicode="&#xa4;" horiz-adv-x="942" d="M12 309l101 101q-92 123 -93 272q0 156 93 274l-101 101l88 88l101 -101q121 90 270.5 90.5t271.5 -90.5l101 101l88 -88l-101 -103q92 -123 92.5 -272.5t-92.5 -269.5l101 -103l-88 -88l-103 101q-119 -92 -270 -93q-150 0 -270 93l-101 -101zM176 682q0 -129 86 -218 t210 -89t209 89t85 218t-85 218t-209 89t-210 -89t-86 -218z" />
<glyph unicode="&#xa5;" horiz-adv-x="942" d="M4 1364h244l223 -557l236 557h233l-289 -641h197v-133h-256l-23 -45v-92h279v-134h-279v-319h-211v319h-278v134h278v92l-20 45h-258v133h199z" />
<glyph unicode="&#xa6;" d="M133 -27v543h170v-543h-170zM133 887v545h170v-545h-170z" />
<glyph unicode="&#xa7;" horiz-adv-x="944" d="M47 618q0 176 182 281q-125 70 -125 225q0 145 104.5 226.5t264.5 81.5q102 0 176 -29t113 -77t55.5 -98t16.5 -106h-213q0 152 -154 152q-66 0 -108 -36t-42 -91q0 -45 34 -84t116 -84l264 -148q168 -94 168 -292q0 -170 -158 -273q113 -94 113 -229q0 -164 -103.5 -254 t-271.5 -90q-186 0 -282.5 98t-96.5 262h213q0 -190 166 -190q66 0 108 39t42 108q0 66 -37 106t-109 79l-223 122q-213 115 -213 301zM236 645q0 -49 32.5 -81t116.5 -81l225 -131l31 23q70 59 70 141q0 94 -117 164l-234 135l-26 -20q-98 -70 -98 -150z" />
<glyph unicode="&#xa8;" d="M-39 1235v213h189v-213h-189zM287 1235v213h188v-213h-188z" />
<glyph unicode="&#xa9;" horiz-adv-x="1572" d="M57 702.5q0 303.5 213 516.5t516.5 213t516.5 -213t213 -516.5t-213 -516.5t-516.5 -213t-516.5 213t-213 516.5zM236 702.5q0 -237.5 161.5 -405.5t389 -168t389 168t161.5 405.5t-161.5 404.5t-389 167t-389 -167t-161.5 -404.5zM397 704.5q0 200.5 110.5 319.5 t301.5 119q137 0 234.5 -80t115.5 -221h-155q-16 70 -69 114q-48 41 -117 42q-6 0 -13 -1q-113 0 -176.5 -83t-63.5 -209q0 -131 65.5 -213t180.5 -82q76 0 129 45t64 118h161q-25 -145 -125 -227t-245 -82q-180 0 -289 120t-109 320.5z" />
<glyph unicode="&#xaa;" horiz-adv-x="620" d="M16 899q0 100 41 139t140 66l102 24q47 12 67.5 27.5t20.5 54.5q0 72 -90 72q-104 0 -104 -98h-146q0 106 60.5 157.5t207.5 51.5q229 0 230 -156v-348q0 -45 33 -45q12 0 28 4v-113q-63 -14 -82 -14q-115 0 -121 92h-6q-61 -92 -188 -92q-193 0 -193 178zM184 913 q0 -27 22.5 -48t61.5 -21q51 0 85 32.5t34 86.5v112q-18 -14 -78.5 -33.5t-75.5 -27.5q-49 -23 -49 -101z" />
<glyph unicode="&#xab;" horiz-adv-x="798" d="M98 457v223l283 266v-217l-172 -162l172 -159v-218zM418 457v223l284 266v-217l-174 -162l174 -159v-218z" />
<glyph unicode="&#xac;" horiz-adv-x="1179" d="M92 616v170h995v-577h-169v407h-826z" />
<glyph unicode="&#xad;" horiz-adv-x="690" d="M88 467v201h516v-201h-516z" />
<glyph unicode="&#xae;" horiz-adv-x="1572" d="M57 702.5q0 303.5 213 516.5t516.5 213t516.5 -213t213 -516.5t-213 -516.5t-516.5 -213t-516.5 213t-213 516.5zM236 702.5q0 -237.5 161.5 -405.5t389 -168t389 168t161.5 405.5t-161.5 404.5t-389 167t-389 -167t-161.5 -404.5zM471 285v833h326q158 0 234.5 -57 t76.5 -182q0 -197 -213 -236l227 -358h-168l-213 352h-125v-352h-145zM616 760h150q45 0 75.5 3t61.5 15.5t45.5 39t14.5 67.5q0 113 -185 112h-162v-237z" />
<glyph unicode="&#xaf;" d="M-59 1282v121h555v-121h-555z" />
<glyph unicode="&#xb0;" horiz-adv-x="786" d="M100 1099q0 120 85 207t208 87t208 -87t85 -207t-85 -206t-208 -86t-208 86t-85 206zM233 1098.5q0 -66.5 46.5 -112.5t114 -46t113.5 46t46 112.5t-46 112.5t-113.5 46t-114 -46t-46.5 -112.5z" />
<glyph unicode="&#xb1;" horiz-adv-x="1179" d="M92 0v170h995v-170h-995zM92 528v170h414v297h168v-297h413v-170h-413v-297h-168v297h-414z" />
<glyph unicode="&#xb2;" horiz-adv-x="614" d="M31 551q0 109 40 188.5t95 125.5t111.5 86t96.5 90.5t40 113.5q0 115 -101 115q-111 0 -110 -150h-170q0 272 282 273q266 0 267 -226q0 -74 -31 -132t-79 -97t-98 -74t-97.5 -81t-65.5 -99h362v-133h-542z" />
<glyph unicode="&#xb3;" horiz-adv-x="614" d="M20 786h168q0 -45 28 -86t89.5 -41t91 40t29.5 100q0 127 -139 127h-60v123h54q63 0 94 33.5t31 80.5q0 41 -26 74t-73 33q-53 0 -78.5 -37t-25.5 -82h-170q0 115 76.5 178.5t209.5 63.5q100 0 177 -54.5t77 -158.5q0 -66 -46 -120t-109 -65v-4q78 -4 128 -56t50 -138 q0 -123 -82 -191.5t-209 -68.5q-145 0 -215 60t-70 189z" />
<glyph unicode="&#xb4;" d="M111 1196l116 283h238l-209 -283h-145z" />
<glyph unicode="&#xb5;" horiz-adv-x="944" d="M102 1057h213v-725q0 -102 33 -146.5t115 -44.5q68 0 118 54.5t50 152.5v709h213v-1057h-201v123h-6q-39 -70 -100.5 -110t-124 -40t-97.5 35v-354h-213v1403z" />
<glyph unicode="&#xb6;" horiz-adv-x="1179" d="M104 1034q0 190 121 279.5t338 89.5h488v-1682h-181v1549h-217v-1549h-180v955q-154 0 -261.5 102t-107.5 256z" />
<glyph unicode="&#xb7;" horiz-adv-x="471" d="M94 605.5q0 58.5 41 100.5t100.5 42t100.5 -42t41 -100.5t-41 -99.5t-100.5 -41t-100.5 41t-41 99.5z" />
<glyph unicode="&#xb8;" d="M10 -391l31 78q70 -25 131 -25q109 0 109 74q0 35 -27 55.5t-64 20.5q-20 0 -73 -17l-37 33l108 172h99l-80 -113q49 10 78 11q66 0 109.5 -43t43.5 -103q0 -78 -65.5 -127t-163.5 -49q-111 0 -199 33z" />
<glyph unicode="&#xb9;" horiz-adv-x="614" d="M78 1151v109h14q184 0 215 116v17h117v-842h-168v600h-178z" />
<glyph unicode="&#xba;" horiz-adv-x="620" d="M27 1055q0 164 64.5 251t220 87t219 -87t63.5 -251q0 -160 -63.5 -247t-219 -87t-220 87t-64.5 247zM197 1055q0 -211 113.5 -211t113.5 211q0 100 -23.5 157.5t-90 57.5t-90 -57.5t-23.5 -157.5z" />
<glyph unicode="&#xbb;" horiz-adv-x="798" d="M98 190v218l172 159l-172 162v217l283 -266v-223zM418 190v218l174 159l-174 162v217l284 -266v-223z" />
<glyph unicode="&#xbc;" horiz-adv-x="1417" d="M20 1151v109h13q186 0 215 116v17h119v-842h-170v600h-177zM145 -61l828 1486h145l-827 -1486h-146zM750 184v121l309 537h170v-547h98v-111h-98v-184h-158v184h-321zM864 295h207v358h-4z" />
<glyph unicode="&#xbd;" horiz-adv-x="1417" d="M20 1151v109h13q186 0 215 116v17h119v-842h-170v600h-177zM145 -61l828 1486h145l-827 -1486h-146zM809 0q0 109 39 189.5t95 126.5t111.5 85t95.5 89.5t40 115.5q0 113 -100 113q-111 0 -111 -150h-168q0 272 281 273q266 0 266 -226q0 -74 -30 -132t-78 -97t-98 -73.5 t-97 -81t-68 -99.5h365v-133h-543z" />
<glyph unicode="&#xbe;" horiz-adv-x="1417" d="M-31 786h168q0 -45 28 -86t89 -41t91 40t30 100q0 127 -139 127h-60v123h53q63 0 94 33.5t31 80.5q0 41 -25.5 74t-72.5 33q-53 0 -78.5 -37t-25.5 -82h-170q0 115 76.5 178.5t209.5 63.5q100 0 177 -54.5t77 -158.5q0 -66 -46 -120t-109 -65v-4q78 -4 128 -56t50 -138 q0 -123 -82 -191.5t-209 -68.5q-145 0 -215 60t-70 189zM213 -61l827 1486h146l-828 -1486h-145zM750 184v121l309 537h170v-547h98v-111h-98v-184h-158v184h-321zM864 295h207v358h-4z" />
<glyph unicode="&#xbf;" horiz-adv-x="909" d="M70 4q0 92 30.5 169t75.5 127t92 95t78 96.5t31 106.5v82h201v-117q0 -80 -30 -139t-72 -100l-83 -81q-41 -40 -70.5 -100.5t-29.5 -138.5q0 -209 160 -209q176 0 176 279h213q0 -201 -93.5 -324t-293.5 -123q-184 0 -284.5 98.5t-100.5 278.5zM369 834v223h223v-223 h-223z" />
<glyph unicode="&#xc0;" horiz-adv-x="1019" d="M-18 0l399 1403h287l370 -1403h-233l-88 344h-410l-90 -344h-235zM279 1765h237l117 -282h-146zM348 522h332l-162 692h-2z" />
<glyph unicode="&#xc1;" horiz-adv-x="1019" d="M-18 0l399 1403h287l370 -1403h-233l-88 344h-410l-90 -344h-235zM348 522h332l-162 692h-2zM418 1483l117 282h235l-207 -282h-145z" />
<glyph unicode="&#xc2;" horiz-adv-x="1019" d="M-18 0l399 1403h287l370 -1403h-233l-88 344h-410l-90 -344h-235zM242 1483l178 282h213l176 -282h-180l-107 172l-110 -172h-170zM348 522h332l-162 692h-2z" />
<glyph unicode="&#xc3;" horiz-adv-x="1019" d="M-18 0l399 1403h287l370 -1403h-233l-88 344h-410l-90 -344h-235zM227 1497q0 80 50.5 158t148.5 78q27 0 104 -35q76 -35 111 -35q59 0 59 76h121q0 -78 -46 -156t-122 -78q-47 0 -128 35t-107 35q-33 0 -50.5 -23.5t-17.5 -54.5h-123zM348 522h332l-162 692h-2z" />
<glyph unicode="&#xc4;" horiz-adv-x="1019" d="M-18 0l399 1403h287l370 -1403h-233l-88 344h-410l-90 -344h-235zM268 1522v213h189v-213h-189zM348 522h332l-162 692h-2zM594 1522v213h188v-213h-188z" />
<glyph unicode="&#xc5;" horiz-adv-x="1019" d="M-18 0l399 1403h287l370 -1403h-233l-88 344h-410l-90 -344h-235zM317 1661q0 86 60.5 147.5t147.5 61.5t147.5 -61.5t60.5 -147.5t-60.5 -147.5t-147.5 -61.5t-147.5 61.5t-60.5 147.5zM348 522h332l-162 692h-2zM416 1661q0 -45 31.5 -78t76.5 -33t78 33t33 78t-33 78 t-78 33t-76.5 -33t-31.5 -78z" />
<glyph unicode="&#xc6;" horiz-adv-x="1456" d="M-25 0l539 1403h858v-189h-498v-389h472v-188h-472v-449h517v-188h-727v344h-330l-123 -344h-236zM393 522h271v703h-19z" />
<glyph unicode="&#xc7;" horiz-adv-x="1019" d="M82 702q0 387 103.5 558.5t363.5 171.5q422 0 422 -441v-26h-223v24q0 117 -46 197q-43 76 -145 76h-10q-86 0 -136.5 -43t-77 -166t-26.5 -344q0 -328 55.5 -448t184.5 -120q209 0 209 338v25h223v-31q0 -131 -35 -235.5t-126 -181t-234 -83.5l-62 -86q49 10 80 11 q63 0 108.5 -43t45.5 -103q0 -78 -66.5 -127t-165.5 -49q-109 0 -198 33l32 78q68 -25 129 -25q111 0 111 74q0 35 -26.5 55.5t-63.5 20.5q-23 0 -76 -17l-35 33l92 145q-225 18 -316 190t-91 539z" />
<glyph unicode="&#xc8;" horiz-adv-x="944" d="M117 0v1403h757v-189h-534v-389h504v-188h-504v-449h551v-188h-774zM252 1765h235l119 -282h-145z" />
<glyph unicode="&#xc9;" horiz-adv-x="944" d="M117 0v1403h757v-189h-534v-389h504v-188h-504v-449h551v-188h-774zM389 1483l119 282h235l-208 -282h-146z" />
<glyph unicode="&#xca;" horiz-adv-x="944" d="M117 0v1403h757v-189h-534v-389h504v-188h-504v-449h551v-188h-774zM215 1483l178 282h213l174 -282h-178l-106 172l-113 -172h-168z" />
<glyph unicode="&#xcb;" horiz-adv-x="944" d="M117 0v1403h757v-189h-534v-389h504v-188h-504v-449h551v-188h-774zM240 1522v213h188v-213h-188zM565 1522v213h191v-213h-191z" />
<glyph unicode="&#xcc;" d="M-27 1765h236l117 -282h-146zM106 0v1403h224v-1403h-224z" />
<glyph unicode="&#xcd;" d="M106 0v1403h224v-1403h-224zM111 1483l116 282h238l-209 -282h-145z" />
<glyph unicode="&#xce;" d="M-66 1483l181 282h211l176 -282h-180l-105 172l-113 -172h-170zM106 0v1403h224v-1403h-224z" />
<glyph unicode="&#xcf;" d="M-39 1522v213h189v-213h-189zM106 0v1403h224v-1403h-224zM287 1522v213h188v-213h-188z" />
<glyph unicode="&#xd0;" horiz-adv-x="1091" d="M0 655v156h117v592h399q129 0 220 -34t144.5 -91t83 -151.5t38 -190.5t8.5 -233.5t-8.5 -234.5t-38 -191.5t-83 -150.5t-144.5 -91t-220 -35h-399v655h-117zM340 170h184q141 0 201.5 115.5t60.5 416.5q0 297 -58 415t-204 118h-184v-424h233v-156h-233v-485z" />
<glyph unicode="&#xd1;" horiz-adv-x="1128" d="M117 0v1403h272l408 -1045h4v1045h211v-1403h-273l-407 1073h-4v-1073h-211zM268 1497q0 80 50.5 158t148.5 78q25 0 102 -35q76 -35 111 -35q59 0 59 76h121q0 -78 -46 -156t-122 -78q-47 0 -128 35t-107 35q-33 0 -50.5 -23.5t-17.5 -54.5h-121z" />
<glyph unicode="&#xd2;" horiz-adv-x="1091" d="M82 701.5q0 377.5 111.5 554t353 176.5t352.5 -176.5t111 -554t-111 -553t-352.5 -175.5t-353 175.5t-111.5 553zM301 1765h236l118 -282h-145zM307 709q0 -176 17.5 -292t53.5 -174.5t75 -80t94 -21.5t94 21.5t75 80t53 174t17 292.5q0 170 -17 283.5t-53 170t-75 78 t-94 21.5t-94 -21.5t-75 -78t-53.5 -170t-17.5 -283.5z" />
<glyph unicode="&#xd3;" horiz-adv-x="1091" d="M82 701.5q0 377.5 111.5 554t353 176.5t352.5 -176.5t111 -554t-111 -553t-352.5 -175.5t-353 175.5t-111.5 553zM307 709q0 -176 17.5 -292t53.5 -174.5t75 -80t94 -21.5t94 21.5t75 80t53 174t17 292.5q0 170 -17 283.5t-53 170t-75 78t-94 21.5t-94 -21.5t-75 -78 t-53.5 -170t-17.5 -283.5zM438 1483l119 282h236l-209 -282h-146z" />
<glyph unicode="&#xd4;" horiz-adv-x="1091" d="M82 701.5q0 377.5 111.5 554t353 176.5t352.5 -176.5t111 -554t-111 -553t-352.5 -175.5t-353 175.5t-111.5 553zM264 1483l178 282h213l174 -282h-178l-106 172l-113 -172h-168zM307 709q0 -176 17.5 -292t53.5 -174.5t75 -80t94 -21.5t94 21.5t75 80t53 174t17 292.5 q0 170 -17 283.5t-53 170t-75 78t-94 21.5t-94 -21.5t-75 -78t-53.5 -170t-17.5 -283.5z" />
<glyph unicode="&#xd5;" horiz-adv-x="1091" d="M82 701.5q0 377.5 111.5 554t353 176.5t352.5 -176.5t111 -554t-111 -553t-352.5 -175.5t-353 175.5t-111.5 553zM250 1497q0 80 50 158t149 78q25 0 104 -35q74 -35 111 -35q57 0 57 76h123q0 -78 -46 -156t-124 -78q-47 0 -127 35t-109 35q-31 0 -49 -23.5t-18 -54.5 h-121zM307 709q0 -176 17.5 -292t53.5 -174.5t75 -80t94 -21.5t94 21.5t75 80t53 174t17 292.5q0 170 -17 283.5t-53 170t-75 78t-94 21.5t-94 -21.5t-75 -78t-53.5 -170t-17.5 -283.5z" />
<glyph unicode="&#xd6;" horiz-adv-x="1091" d="M82 701.5q0 377.5 111.5 554t353 176.5t352.5 -176.5t111 -554t-111 -553t-352.5 -175.5t-353 175.5t-111.5 553zM289 1522v213h188v-213h-188zM307 709q0 -176 17.5 -292t53.5 -174.5t75 -80t94 -21.5t94 21.5t75 80t53 174t17 292.5q0 170 -17 283.5t-53 170t-75 78 t-94 21.5t-94 -21.5t-75 -78t-53.5 -170t-17.5 -283.5zM614 1522v213h191v-213h-191z" />
<glyph unicode="&#xd7;" horiz-adv-x="1179" d="M137 156l342 342l-342 342l111 110l340 -342l344 342l110 -110l-344 -342l344 -342l-110 -111l-344 344l-340 -344z" />
<glyph unicode="&#xd8;" horiz-adv-x="1091" d="M82 702q0 377 111.5 553.5t353.5 176.5q133 0 225 -56l53 127l101 -47l-66 -151q150 -168 150 -603q0 -379 -111 -554t-352 -175q-133 0 -225 54l-54 -129l-100 47l63 153q-149 170 -149 604zM307 709q0 -225 31 -357h4l354 842q-51 68 -149 68q-55 0 -94 -21.5t-75 -78 t-53.5 -170t-17.5 -283.5zM399 211q49 -70 148 -70q55 0 94 21.5t75 80t53 174t17 292.5q0 215 -28 344h-4z" />
<glyph unicode="&#xd9;" horiz-adv-x="1054" d="M98 416v987h224v-1006q0 -256 206 -256q205 0 205 256v1006h225v-987q0 -236 -109.5 -339.5t-319.5 -103.5t-320.5 103.5t-110.5 339.5zM283 1765h235l119 -282h-145z" />
<glyph unicode="&#xda;" horiz-adv-x="1054" d="M98 416v987h224v-1006q0 -256 206 -256q205 0 205 256v1006h225v-987q0 -236 -109.5 -339.5t-319.5 -103.5t-320.5 103.5t-110.5 339.5zM420 1483l119 282h235l-209 -282h-145z" />
<glyph unicode="&#xdb;" horiz-adv-x="1054" d="M98 416v987h224v-1006q0 -256 206 -256q205 0 205 256v1006h225v-987q0 -236 -109.5 -339.5t-319.5 -103.5t-320.5 103.5t-110.5 339.5zM246 1483l178 282h213l174 -282h-178l-107 172l-110 -172h-170z" />
<glyph unicode="&#xdc;" horiz-adv-x="1054" d="M98 416v987h224v-1006q0 -256 206 -256q205 0 205 256v1006h225v-987q0 -236 -109.5 -339.5t-319.5 -103.5t-320.5 103.5t-110.5 339.5zM270 1522v213h191v-213h-191zM598 1522v213h188v-213h-188z" />
<glyph unicode="&#xdd;" horiz-adv-x="944" d="M-8 1403h250l235 -604l242 604h235l-376 -854v-549h-224v549zM367 1483l116 282h236l-207 -282h-145z" />
<glyph unicode="&#xde;" horiz-adv-x="983" d="M117 0v1403h223v-266h221q195 0 291 -111t96 -299q0 -190 -108.5 -302t-302.5 -112h-197v-313h-223zM340 481h160q98 0 160.5 59.5t62.5 182.5q0 121 -55.5 182.5t-184.5 61.5h-143v-486z" />
<glyph unicode="&#xdf;" horiz-adv-x="944" d="M86 0v1049q0 371 371 370q98 0 176 -25.5t134 -101t56 -194.5q0 -242 -196 -291v-4q139 -14 198.5 -117.5t59.5 -249.5q0 -207 -92.5 -327.5t-280.5 -120.5h-100v170h53q197 0 197 274q0 281 -195 281h-51v157h37q53 0 106 45.5t53 147.5q0 199 -157 199 q-156 0 -156 -199v-1063h-213z" />
<glyph unicode="&#xe0;" horiz-adv-x="909" d="M61 270q0 160 58.5 225.5t187.5 106.5l164 45q68 16 96.5 44t28.5 91q0 78 -33 118t-112 40q-96 0 -129 -54.5t-33 -148.5h-201q0 174 85 261t288 87q152 0 244 -63.5t92 -196.5v-604q0 -31 15 -53.5t38.5 -22.5t36.5 7v-138q-55 -27 -105 -26q-170 0 -178 139h-4 q-84 -154 -264 -154q-129 0 -202 75t-73 222zM211 1479h235l119 -283h-147zM272 289q0 -70 35 -115t99 -45q94 0 142 66.5t48 185.5v178q-31 -27 -127 -59.5t-109 -38.5q-88 -43 -88 -172z" />
<glyph unicode="&#xe1;" horiz-adv-x="909" d="M61 270q0 160 58.5 225.5t187.5 106.5l164 45q68 16 96.5 44t28.5 91q0 78 -33 118t-112 40q-96 0 -129 -54.5t-33 -148.5h-201q0 174 85 261t288 87q152 0 244 -63.5t92 -196.5v-604q0 -31 15 -53.5t38.5 -22.5t36.5 7v-138q-55 -27 -105 -26q-170 0 -178 139h-4 q-84 -154 -264 -154q-129 0 -202 75t-73 222zM272 289q0 -70 35 -115t99 -45q94 0 142 66.5t48 185.5v178q-31 -27 -127 -59.5t-109 -38.5q-88 -43 -88 -172zM348 1196l119 283h235l-208 -283h-146z" />
<glyph unicode="&#xe2;" horiz-adv-x="909" d="M61 270q0 160 58.5 225.5t187.5 106.5l164 45q68 16 96.5 44t28.5 91q0 78 -33 118t-112 40q-96 0 -129 -54.5t-33 -148.5h-201q0 174 85 261t288 87q152 0 244 -63.5t92 -196.5v-604q0 -31 15 -53.5t38.5 -22.5t36.5 7v-138q-55 -27 -105 -26q-170 0 -178 139h-4 q-84 -154 -264 -154q-129 0 -202 75t-73 222zM172 1196l180 283h213l174 -283h-178l-106 172l-113 -172h-170zM272 289q0 -70 35 -115t99 -45q94 0 142 66.5t48 185.5v178q-31 -27 -127 -59.5t-109 -38.5q-88 -43 -88 -172z" />
<glyph unicode="&#xe3;" horiz-adv-x="909" d="M61 270q0 160 58.5 225.5t187.5 106.5l164 45q68 16 96.5 44t28.5 91q0 78 -33 118t-112 40q-96 0 -129 -54.5t-33 -148.5h-201q0 174 85 261t288 87q152 0 244 -63.5t92 -196.5v-604q0 -31 15 -53.5t38.5 -22.5t36.5 7v-138q-55 -27 -105 -26q-170 0 -178 139h-4 q-84 -154 -264 -154q-129 0 -202 75t-73 222zM160 1208q0 82 50 160t148 78q25 0 105 -35q74 -35 108 -35q59 0 60 74h123q0 -76 -46 -153.5t-124 -77.5q-47 0 -128 34.5t-108 34.5q-31 0 -49 -23.5t-18 -56.5h-121zM272 289q0 -70 35 -115t99 -45q94 0 142 66.5t48 185.5 v178q-31 -27 -127 -59.5t-109 -38.5q-88 -43 -88 -172z" />
<glyph unicode="&#xe4;" horiz-adv-x="909" d="M61 270q0 160 58.5 225.5t187.5 106.5l164 45q68 16 96.5 44t28.5 91q0 78 -33 118t-112 40q-96 0 -129 -54.5t-33 -148.5h-201q0 174 85 261t288 87q152 0 244 -63.5t92 -196.5v-604q0 -31 15 -53.5t38.5 -22.5t36.5 7v-138q-55 -27 -105 -26q-170 0 -178 139h-4 q-84 -154 -264 -154q-129 0 -202 75t-73 222zM199 1235v213h188v-213h-188zM272 289q0 -70 35 -115t99 -45q94 0 142 66.5t48 185.5v178q-31 -27 -127 -59.5t-109 -38.5q-88 -43 -88 -172zM524 1235v213h189v-213h-189z" />
<glyph unicode="&#xe5;" horiz-adv-x="909" d="M61 270q0 160 58.5 225.5t187.5 106.5l164 45q68 16 96.5 44t28.5 91q0 78 -33 118t-112 40q-96 0 -129 -54.5t-33 -148.5h-201q0 174 85 261t288 87q152 0 244 -63.5t92 -196.5v-604q0 -31 15 -53.5t38.5 -22.5t36.5 7v-138q-55 -27 -105 -26q-170 0 -178 139h-4 q-84 -154 -264 -154q-129 0 -202 75t-73 222zM248 1374q0 86 60.5 147.5t147.5 61.5t147.5 -61.5t60.5 -147.5t-60.5 -147.5t-147.5 -61.5t-147.5 61.5t-60.5 147.5zM272 289q0 -70 35 -115t99 -45q94 0 142 66.5t48 185.5v178q-31 -27 -127 -59.5t-109 -38.5 q-88 -43 -88 -172zM346 1374q0 -45 33 -77.5t78 -32.5t76.5 32.5t31.5 77.5t-31.5 78t-76.5 33t-78 -33t-33 -78z" />
<glyph unicode="&#xe6;" horiz-adv-x="1382" d="M61 270q0 152 66 221.5t195 102.5l167 43q53 14 72 43t19 102q0 158 -129 158q-96 0 -129 -54.5t-33 -148.5h-201q0 174 85 261t288 87q193 0 248 -135q78 131 258 135q190 0 267 -117.5t77 -353.5v-112h-529v-76q0 -301 156 -307q53 0 89 26.5t52.5 68.5t21.5 75t5 65 h201q0 -176 -99.5 -278.5t-271.5 -102.5q-74 2 -127 20.5t-86 54.5t-46 58.5t-30 59.5q-39 -92 -114.5 -142.5t-170.5 -50.5q-129 0 -215 75t-86 222zM272 276q0 -59 34 -103t91 -44q184 0 185 246v168q-25 -29 -154 -64q-98 -27 -127 -73t-29 -130zM784 647h316v58 q0 236 -154 235q-86 0 -124 -80t-38 -168v-45z" />
<glyph unicode="&#xe7;" horiz-adv-x="872" d="M61 528q0 268 88.5 412.5t305.5 144.5q6 0 12 1q83 0 146 -26q69 -28 107 -68t61.5 -95t29.5 -99t6 -91h-211q0 92 -34 157q-33 64 -112 64h-5q-106 0 -144.5 -100.5t-38.5 -299t38 -299t145 -100.5h5q80 0 117 65q38 67 37 191h201q-8 -184 -77.5 -287.5t-223.5 -120.5 l-65 -90q49 10 77 11q66 0 110 -43t44 -103q0 -78 -65.5 -127t-163.5 -49q-111 0 -199 33l31 78q70 -25 131 -25q109 0 108 74q0 35 -26.5 55.5t-63.5 20.5q-20 0 -74 -17l-36 33l94 147q-135 8 -215 84t-110 189.5t-30 279.5z" />
<glyph unicode="&#xe8;" horiz-adv-x="909" d="M74 514q0 115 15 207t54 180t121 136t201 48q209 0 291 -116.5t82 -354.5v-112h-553v-62q0 -63 6 -112t22.5 -101.5t54 -80t95.5 -27.5q53 0 89 26.5t51 68.5t21.5 75t6.5 65h200q0 -176 -99 -278.5t-271 -102.5q-61 0 -108.5 8.5t-102.5 41t-91 89t-60.5 158 t-24.5 244.5zM233 1479h236l119 -283h-146zM285 647h340v57q0 236 -162 236q-94 0 -136 -77t-42 -195v-21z" />
<glyph unicode="&#xe9;" horiz-adv-x="909" d="M74 514q0 115 15 207t54 180t121 136t201 48q209 0 291 -116.5t82 -354.5v-112h-553v-62q0 -63 6 -112t22.5 -101.5t54 -80t95.5 -27.5q53 0 89 26.5t51 68.5t21.5 75t6.5 65h200q0 -176 -99 -278.5t-271 -102.5q-61 0 -108.5 8.5t-102.5 41t-91 89t-60.5 158 t-24.5 244.5zM285 647h340v57q0 236 -162 236q-94 0 -136 -77t-42 -195v-21zM371 1196l118 283h236l-209 -283h-145z" />
<glyph unicode="&#xea;" horiz-adv-x="909" d="M74 514q0 115 15 207t54 180t121 136t201 48q209 0 291 -116.5t82 -354.5v-112h-553v-62q0 -63 6 -112t22.5 -101.5t54 -80t95.5 -27.5q53 0 89 26.5t51 68.5t21.5 75t6.5 65h200q0 -176 -99 -278.5t-271 -102.5q-61 0 -108.5 8.5t-102.5 41t-91 89t-60.5 158 t-24.5 244.5zM197 1196l178 283h213l174 -283h-178l-107 172l-110 -172h-170zM285 647h340v57q0 236 -162 236q-94 0 -136 -77t-42 -195v-21z" />
<glyph unicode="&#xeb;" horiz-adv-x="909" d="M74 514q0 115 15 207t54 180t121 136t201 48q209 0 291 -116.5t82 -354.5v-112h-553v-62q0 -63 6 -112t22.5 -101.5t54 -80t95.5 -27.5q53 0 89 26.5t51 68.5t21.5 75t6.5 65h200q0 -176 -99 -278.5t-271 -102.5q-61 0 -108.5 8.5t-102.5 41t-91 89t-60.5 158 t-24.5 244.5zM221 1235v213h191v-213h-191zM285 647h340v57q0 236 -162 236q-94 0 -136 -77t-42 -195v-21zM549 1235v213h188v-213h-188z" />
<glyph unicode="&#xec;" d="M-27 1479h236l117 -283h-146zM113 0v1057h211v-1057h-211z" />
<glyph unicode="&#xed;" d="M111 1196l116 283h238l-209 -283h-145zM113 0v1057h211v-1057h-211z" />
<glyph unicode="&#xee;" d="M-66 1196l181 283h211l176 -283h-180l-105 172l-113 -172h-170zM113 0v1057h211v-1057h-211z" />
<glyph unicode="&#xef;" d="M-39 1235v213h189v-213h-189zM113 0v1057h211v-1057h-211zM287 1235v213h188v-213h-188z" />
<glyph unicode="&#xf0;" horiz-adv-x="909" d="M61 528q0 528 361 529q102 0 162 -64l4 4q-88 133 -232 273l-172 -94l-69 71l168 92q-66 63 -125 103l155 84q49 -29 129 -101l179 97l63 -72l-168 -92q193 -182 263.5 -362.5t70.5 -467.5q0 -555 -395 -555q-394 0 -394 555zM272 528q0 -215 37 -307t146 -92 q111 0 146.5 92t35.5 307q0 86 -7 147.5t-25.5 116t-55.5 82t-94 27.5q-55 0 -93 -27.5t-56.5 -82t-26 -116t-7.5 -147.5z" />
<glyph unicode="&#xf1;" horiz-adv-x="944" d="M102 0v1057h201v-123h6q39 72 111 111.5t160 39.5q129 0 196.5 -66.5t67.5 -219.5v-799h-213v725q0 102 -33 146t-115 44q-70 0 -119 -53t-49 -151v-711h-213zM176 1208q0 82 50 160t149 78q27 0 104 -35q76 -35 111 -35q59 0 59 74h121q0 -76 -46 -153.5t-122 -77.5 q-47 0 -128 34.5t-107 34.5q-33 0 -50.5 -23.5t-17.5 -56.5h-123z" />
<glyph unicode="&#xf2;" horiz-adv-x="909" d="M61 528q0 268 88.5 412.5t305.5 144.5t306 -144t89 -413q0 -555 -395 -555q-394 0 -394 555zM211 1479h235l119 -283h-147zM272 528q0 -215 37 -307t146 -92q111 0 146.5 92t35.5 307q0 199 -37 299.5t-145 100.5q-106 0 -144.5 -100.5t-38.5 -299.5z" />
<glyph unicode="&#xf3;" horiz-adv-x="909" d="M61 528q0 268 88.5 412.5t305.5 144.5t306 -144t89 -413q0 -555 -395 -555q-394 0 -394 555zM272 528q0 -215 37 -307t146 -92q111 0 146.5 92t35.5 307q0 199 -37 299.5t-145 100.5q-106 0 -144.5 -100.5t-38.5 -299.5zM348 1196l119 283h235l-208 -283h-146z" />
<glyph unicode="&#xf4;" horiz-adv-x="909" d="M61 528q0 268 88.5 412.5t305.5 144.5t306 -144t89 -413q0 -555 -395 -555q-394 0 -394 555zM172 1196l180 283h213l174 -283h-178l-106 172l-113 -172h-170zM272 528q0 -215 37 -307t146 -92q111 0 146.5 92t35.5 307q0 199 -37 299.5t-145 100.5q-106 0 -144.5 -100.5 t-38.5 -299.5z" />
<glyph unicode="&#xf5;" horiz-adv-x="909" d="M61 528q0 268 88.5 412.5t305.5 144.5t306 -144t89 -413q0 -555 -395 -555q-394 0 -394 555zM160 1208q0 82 50 160t148 78q25 0 105 -35q74 -35 108 -35q59 0 60 74h123q0 -76 -46 -153.5t-124 -77.5q-47 0 -128 34.5t-108 34.5q-31 0 -49 -23.5t-18 -56.5h-121z M272 528q0 -215 37 -307t146 -92q111 0 146.5 92t35.5 307q0 199 -37 299.5t-145 100.5q-106 0 -144.5 -100.5t-38.5 -299.5z" />
<glyph unicode="&#xf6;" horiz-adv-x="909" d="M61 528q0 268 88.5 412.5t305.5 144.5t306 -144t89 -413q0 -555 -395 -555q-394 0 -394 555zM199 1235v213h188v-213h-188zM272 528q0 -215 37 -307t146 -92q111 0 146.5 92t35.5 307q0 199 -37 299.5t-145 100.5q-106 0 -144.5 -100.5t-38.5 -299.5zM524 1235v213h189 v-213h-189z" />
<glyph unicode="&#xf7;" horiz-adv-x="1179" d="M92 414v168h995v-168h-995zM449 94.5q0 59.5 40.5 100.5t100 41t100.5 -41t41 -100.5t-41 -100.5t-100.5 -41t-100 41t-40.5 100.5zM449 900q0 58 40.5 100t100 42t100.5 -42t41 -100t-41 -99t-100.5 -41t-100 41t-40.5 99z" />
<glyph unicode="&#xf8;" horiz-adv-x="909" d="M61 528q0 268 88.5 412.5t305.5 144.5q109 0 182 -38l59 127l95 -52l-66 -137q125 -125 125 -457q0 -266 -89 -410.5t-306 -144.5q-109 0 -185 37l-59 -133l-94 51l67 146q-123 124 -123 454zM272 528q0 -137 15 -227h4l272 584q-45 43 -108 43q-106 0 -144.5 -100.5 t-38.5 -299.5zM348 172q39 -43 107 -43q109 0 145.5 100.5t36.5 298.5q0 143 -16 232h-5z" />
<glyph unicode="&#xf9;" horiz-adv-x="944" d="M102 319v738h213v-758q0 -84 36 -121t107.5 -37t122 46t50.5 132v738h213v-1057h-201v123h-6q-39 -70 -110.5 -110t-159.5 -40q-129 0 -197 75.5t-68 270.5zM227 1479h238l117 -283h-146z" />
<glyph unicode="&#xfa;" horiz-adv-x="944" d="M102 319v738h213v-758q0 -84 36 -121t107.5 -37t122 46t50.5 132v738h213v-1057h-201v123h-6q-39 -70 -110.5 -110t-159.5 -40q-129 0 -197 75.5t-68 270.5zM367 1196l116 283h236l-207 -283h-145z" />
<glyph unicode="&#xfb;" horiz-adv-x="944" d="M102 319v738h213v-758q0 -84 36 -121t107.5 -37t122 46t50.5 132v738h213v-1057h-201v123h-6q-39 -70 -110.5 -110t-159.5 -40q-129 0 -197 75.5t-68 270.5zM190 1196l179 283h213l176 -283h-180l-107 172l-111 -172h-170z" />
<glyph unicode="&#xfc;" horiz-adv-x="944" d="M102 319v738h213v-758q0 -84 36 -121t107.5 -37t122 46t50.5 132v738h213v-1057h-201v123h-6q-39 -70 -110.5 -110t-159.5 -40q-129 0 -197 75.5t-68 270.5zM217 1235v213h189v-213h-189zM543 1235v213h188v-213h-188z" />
<glyph unicode="&#xfd;" horiz-adv-x="835" d="M16 1057h228l182 -793h4l170 793h221l-291 -1096q-61 -211 -131 -269q-65 -55 -216 -55q-11 0 -21 1q-31 0 -86 8v170q47 -8 69 -9q59 0 92 17.5t52 64.5l28 86zM311 1196l117 283h236l-207 -283h-146z" />
<glyph unicode="&#xfe;" horiz-adv-x="944" d="M102 -346v1749h213v-469h4q61 152 240 151q326 0 326 -569q0 -160 -30 -272.5t-81 -168t-103.5 -79t-111.5 -23.5q-178 0 -240 150h-4v-469h-213zM303 541q0 -207 37 -303.5t143 -96.5q94 0 136.5 85t42.5 298q0 197 -38 294t-143 97q-102 0 -140 -94t-38 -280z" />
<glyph unicode="&#xff;" horiz-adv-x="835" d="M16 1057h228l182 -793h4l170 793h221l-291 -1096q-61 -211 -131 -269q-65 -55 -216 -55q-11 0 -21 1q-31 0 -86 8v170q47 -8 69 -9q59 0 92 17.5t52 64.5l28 86zM162 1235v213h188v-213h-188zM487 1235v213h189v-213h-189z" />
<glyph unicode="&#x131;" d="M113 0v1057h211v-1057h-211z" />
<glyph unicode="&#x141;" horiz-adv-x="872" d="M-20 436v193l110 78v696h225v-543l287 197v-193l-287 -198v-478h543v-188h-768v514z" />
<glyph unicode="&#x142;" d="M0 483v189l113 80v651h211v-506l112 78v-189l-112 -77v-709h-211v563z" />
<glyph unicode="&#x152;" horiz-adv-x="1564" d="M82 702q0 373 107.5 551.5t328.5 178.5q190 0 264 -115h4v86h697v-189h-500v-389h467v-188h-467v-449h516v-188h-713v100h-4q-78 -127 -270 -127q-221 0 -325.5 174t-104.5 555zM307 709q0 -176 17.5 -292t53.5 -174.5t75 -80t94 -21.5q111 0 167 66.5t56 257.5v475 q0 186 -53 254t-154 68q-49 0 -85 -11.5t-70.5 -47.5t-55 -96t-33 -160.5t-12.5 -237.5z" />
<glyph unicode="&#x153;" horiz-adv-x="1419" d="M61 528q0 131 18.5 228.5t61.5 174.5t119 115.5t186 38.5q70 0 121 -14t85 -43t49.5 -49.5t35.5 -54.5q94 162 277 161q190 0 267 -117.5t77 -353.5v-112h-529v-76q0 -301 156 -307q53 0 89 26.5t52.5 68.5t22.5 75t6 65h199q0 -176 -99.5 -278.5t-271.5 -102.5 q-68 0 -120 20.5t-79.5 52.5t-41 54.5t-19.5 40.5q-82 -168 -291 -168q-203 0 -287 145.5t-84 409.5zM272 528.5q0 -96.5 7.5 -163t25 -123t53 -85t88.5 -28.5q109 0 146 100.5t37 299t-37 299t-146 100.5q-53 0 -88.5 -29t-53 -84t-25 -122.5t-7.5 -164zM831 647h316v58 q0 236 -154 235q-84 0 -123 -80t-39 -168v-45z" />
<glyph unicode="&#x160;" horiz-adv-x="1019" d="M66 401v33h223v-35q0 -258 229 -258q100 0 156.5 60.5t56.5 144.5q0 106 -50 162.5t-151 87.5l-153 53q-156 59 -224.5 147.5t-68.5 237.5q0 188 117.5 293t318.5 105q102 0 179 -26t118 -62.5t65.5 -90t30 -97.5t5.5 -95v-31h-224v29q0 203 -196 203q-80 0 -134.5 -49.5 t-54.5 -153.5q0 -88 48.5 -141.5t160.5 -96.5l152 -55q150 -53 218 -140t68 -231q0 -422 -464 -422q-123 0 -212.5 38t-133.5 103.5t-62 135t-18 151.5zM227 1765h181l106 -172l111 172h170l-181 -282h-211z" />
<glyph unicode="&#x161;" horiz-adv-x="835" d="M55 301v39h189v-33q0 -94 37.5 -141t128.5 -47q172 0 172 153q0 117 -115 156l-174 61q-121 41 -173 110t-52 196q0 145 96 217.5t264 72.5q184 0 258 -85t74 -203v-47h-201v26q0 164 -141 164q-68 0 -109 -34t-41 -103q0 -61 31 -94t119 -62l135 -47q119 -41 174 -111.5 t55 -193.5q0 -162 -104.5 -242t-274.5 -80q-190 0 -269 82t-79 246zM135 1479h180l105 -174l112 174h170l-180 -283h-211z" />
<glyph unicode="&#x178;" horiz-adv-x="944" d="M-8 1403h250l235 -604l242 604h235l-376 -854v-549h-224v549zM217 1522v213h189v-213h-189zM543 1522v213h188v-213h-188z" />
<glyph unicode="&#x17d;" horiz-adv-x="909" d="M35 0v176l588 1038h-551v189h796v-189l-587 -1026h593v-188h-839zM172 1765h180l107 -172l110 172h170l-178 -282h-213z" />
<glyph unicode="&#x17e;" horiz-adv-x="798" d="M49 0v166l463 713h-436v178h676v-174l-445 -705h445v-178h-703zM119 1479h178l106 -174l113 174h168l-178 -283h-213z" />
<glyph unicode="&#x192;" horiz-adv-x="942" d="M-51 -334l33 154q35 -8 84 -8q72 0 102.5 35.5t50.5 127.5l150 744h-203l20 135h209l56 252q33 147 101.5 222t215.5 75q94 0 152 -14l-29 -150q-6 0 -19.5 3t-28 4t-28.5 1q-68 0 -109.5 -42t-62.5 -142l-47 -209h219l-20 -135h-226l-149 -729q-35 -174 -109.5 -255 t-232.5 -81q-88 0 -129 12z" />
<glyph unicode="&#x2c6;" d="M-66 1196l181 283h211l176 -283h-180l-105 172l-113 -172h-170z" />
<glyph unicode="&#x2c7;" d="M-66 1479h181l106 -174l111 174h170l-180 -283h-211z" />
<glyph unicode="&#x2c9;" d="M-59 1282v121h555v-121h-555z" />
<glyph unicode="&#x2d8;" d="M-43 1460h121q0 -43 39 -87t101.5 -44t101 44t38.5 87h121q0 -113 -69.5 -188.5t-191.5 -75.5t-191.5 75.5t-69.5 188.5z" />
<glyph unicode="&#x2d9;" d="M123 1235v213h190v-213h-190z" />
<glyph unicode="&#x2da;" d="M10 1374q0 86 60.5 147.5t147.5 61.5t147.5 -61.5t60.5 -147.5t-60.5 -147.5t-147.5 -61.5t-147.5 61.5t-60.5 147.5zM109 1374q0 -45 31.5 -77.5t77.5 -32.5t78 32.5t32 77.5t-32 78t-78 33t-77.5 -33t-31.5 -78z" />
<glyph unicode="&#x2db;" d="M47 -250q0 72 53.5 138.5t137.5 111.5h98q-131 -121 -131 -225q0 -53 29.5 -83t82.5 -30q41 0 86 14l13 -84q-70 -16 -154 -16q-96 0 -155.5 43t-59.5 131z" />
<glyph unicode="&#x2dc;" d="M-78 1208q0 82 50.5 160t148.5 78q25 0 102 -35q76 -35 111 -35q59 0 59 74h123q0 -76 -47 -153.5t-123 -77.5q-47 0 -128 34.5t-107 34.5q-33 0 -50.5 -23.5t-17.5 -56.5h-121z" />
<glyph unicode="&#x2dd;" d="M-125 1196l117 283h235l-207 -283h-145zM268 1196l117 283h236l-207 -283h-146z" />
<glyph unicode="&#x3a9;" horiz-adv-x="1193" d="M70 0v162h237v6q-92 102 -152.5 252.5t-60.5 331.5q0 274 143.5 456.5t366.5 182.5q225 0 358.5 -188.5t133.5 -438.5q0 -182 -63.5 -340t-151.5 -256v-6h237v-162h-426v119q90 72 152.5 228.5t62.5 373.5q-2 203 -82 351.5t-225 148.5q-143 0 -230 -142.5t-87 -365.5 q0 -201 63.5 -364t151.5 -230v-119h-428z" />
<glyph unicode="&#x3bc;" horiz-adv-x="944" d="M102 1057h213v-725q0 -102 33 -146.5t115 -44.5q68 0 118 54.5t50 152.5v709h213v-1057h-201v123h-6q-39 -70 -100.5 -110t-124 -40t-97.5 35v-354h-213v1403z" />
<glyph unicode="&#x3c0;" horiz-adv-x="1011" d="M14 967q78 57 269 57h700l-16 -168h-125v-582q0 -164 22 -274h-178q-29 59 -29 268v588h-262q-8 -195 -42 -453t-77 -403h-180q45 166 78 416t37 440q-115 0 -174 -20z" />
<glyph unicode="&#x2000;" horiz-adv-x="933" />
<glyph unicode="&#x2001;" horiz-adv-x="1869" />
<glyph unicode="&#x2002;" horiz-adv-x="933" />
<glyph unicode="&#x2003;" horiz-adv-x="1869" />
<glyph unicode="&#x2004;" horiz-adv-x="622" />
<glyph unicode="&#x2005;" horiz-adv-x="466" />
<glyph unicode="&#x2006;" horiz-adv-x="311" />
<glyph unicode="&#x2007;" horiz-adv-x="311" />
<glyph unicode="&#x2008;" horiz-adv-x="233" />
<glyph unicode="&#x2009;" horiz-adv-x="372" />
<glyph unicode="&#x200a;" horiz-adv-x="102" />
<glyph unicode="&#x2010;" horiz-adv-x="690" d="M88 467v201h516v-201h-516z" />
<glyph unicode="&#x2011;" horiz-adv-x="690" d="M88 467v201h516v-201h-516z" />
<glyph unicode="&#x2012;" horiz-adv-x="690" d="M88 467v201h516v-201h-516z" />
<glyph unicode="&#x2013;" horiz-adv-x="983" d="M0 473v191h983v-191h-983z" />
<glyph unicode="&#x2014;" horiz-adv-x="1966" d="M0 473v191h1966v-191h-1966z" />
<glyph unicode="&#x2018;" horiz-adv-x="471" d="M123 842v260q0 125 51 201.5t174 99.5v-113q-98 -27 -98 -160v-28h98v-260h-225z" />
<glyph unicode="&#x2019;" horiz-adv-x="471" d="M123 842v114q98 25 98 158v31h-98v258h225v-258q0 -127 -51 -203.5t-174 -99.5z" />
<glyph unicode="&#x201a;" horiz-adv-x="471" d="M123 0v260h225v-260q0 -125 -51 -202t-174 -101v115q98 25 98 159v29h-98z" />
<glyph unicode="&#x201c;" horiz-adv-x="835" d="M131 842v260q0 125 51 201.5t174 99.5v-113q-98 -27 -98 -160v-28h98v-260h-225zM481 842v260q0 125 51.5 201.5t174.5 99.5v-113q-98 -27 -99 -160v-28h99v-260h-226z" />
<glyph unicode="&#x201d;" horiz-adv-x="835" d="M131 842v114q98 25 98 158v31h-98v258h225v-258q0 -127 -51 -203.5t-174 -99.5zM481 842v114q98 25 99 158v31h-99v258h226v-258q0 -127 -51.5 -203.5t-174.5 -99.5z" />
<glyph unicode="&#x201e;" horiz-adv-x="835" d="M131 0v260h225v-260q0 -125 -51 -202t-174 -101v115q98 25 98 159v29h-98zM481 0v260h226v-260q0 -125 -51.5 -202t-174.5 -101v115q98 25 99 159v29h-99z" />
<glyph unicode="&#x2020;" horiz-adv-x="946" d="M31 827v181h338v395h211v-395h335v-181h-335v-1106h-211v1106h-338z" />
<glyph unicode="&#x2021;" horiz-adv-x="946" d="M29 113v168h340v571h-340v168h340v383h211v-383h338v-168h-338v-571h338v-168h-338v-392h-211v392h-340z" />
<glyph unicode="&#x2022;" horiz-adv-x="983" d="M141 702.5q0 143.5 102.5 247t248 103.5t248 -103.5t102.5 -247t-102.5 -247t-248 -103.5t-248 103.5t-102.5 247z" />
<glyph unicode="&#x2026;" horiz-adv-x="1966" d="M217 0v260h223v-260h-223zM870 0v260h226v-260h-226zM1526 0v260h223v-260h-223z" />
<glyph unicode="&#x202f;" horiz-adv-x="372" />
<glyph unicode="&#x2030;" horiz-adv-x="2074" d="M49 1015q0 206 70.5 292t198.5 86t199 -86t71 -292t-71 -292t-199 -86t-198.5 86t-70.5 292zM219 1013.5q0 -141.5 20.5 -197.5t79 -56t79 56t20.5 197.5t-20.5 199t-79 57.5t-79 -57.5t-20.5 -199zM332 -27l624 1420h150l-627 -1420h-147zM860 350q0 207 72 292 t198.5 85t198.5 -85t72 -292t-72 -292t-198.5 -85t-198.5 85t-72 292zM1030 350.5q0 -141.5 20.5 -199t80 -57.5t80 57.5t20.5 199t-20.5 198.5t-80 57t-80 -57t-20.5 -198.5zM1489 350q0 207 70.5 292t198.5 85t199 -85t71 -292t-71 -292t-199 -85t-198.5 85t-70.5 292z M1657 350.5q0 -141.5 20.5 -199t80 -57.5t80 57.5t20.5 199t-20.5 198.5t-80 57t-80 -57t-20.5 -198.5z" />
<glyph unicode="&#x2039;" horiz-adv-x="471" d="M94 457v223l283 266v-217l-172 -162l172 -159v-218z" />
<glyph unicode="&#x203a;" horiz-adv-x="471" d="M94 190v218l174 159l-174 162v217l283 -266v-223z" />
<glyph unicode="&#x2044;" horiz-adv-x="327" d="M-322 -61l828 1486h145l-827 -1486h-146z" />
<glyph unicode="&#x205f;" horiz-adv-x="466" />
<glyph unicode="&#x20ac;" horiz-adv-x="942" d="M0 485l47 133h92q-2 37 -2 72t2 68h-139l47 133h100q18 295 175 416q109 86 290 86q117 0 203 -39q76 -33 129 -99l-67 -180q-33 74 -103 117q-66 43 -158 43q-100 0 -157 -66q-76 -84 -88 -278h440l-47 -133h-399q-2 -33 -2.5 -68t2.5 -72h362l-47 -133h-309 q6 -197 88 -286q59 -70 162 -70q88 0 167 43q78 39 123 111v-215q-41 -37 -90 -56q-90 -39 -205 -39q-186 0 -294 84q-160 129 -175 428h-147z" />
<glyph unicode="&#x2113;" horiz-adv-x="860" d="M43 375q127 119 143 137v520q0 238 84 353.5t209 115.5q111 0 169.5 -89t58.5 -236q0 -315 -340 -687l2 -90q0 -135 45 -200.5t118 -65.5q121 0 220 170l77 -78q-117 -246 -335 -245q-154 0 -227.5 96t-80.5 252v26q-6 -6 -41 -37l-53 -47zM367 676q225 285 225 508 q0 174 -105 174q-51 0 -85.5 -79t-34.5 -259v-344z" />
<glyph unicode="&#x2122;" horiz-adv-x="1966" d="M63 1270v133h652v-133h-242v-676h-168v676h-242zM877 594v809h233l221 -574l219 574h236v-809h-158v641h-4l-238 -641h-110l-238 641h-4v-641h-157z" />
<glyph unicode="&#x2126;" horiz-adv-x="1193" d="M70 0v162h237v6q-92 102 -152.5 252.5t-60.5 331.5q0 274 143.5 456.5t366.5 182.5q225 0 358.5 -188.5t133.5 -438.5q0 -182 -63.5 -340t-151.5 -256v-6h237v-162h-426v119q90 72 152.5 228.5t62.5 373.5q-2 203 -82 351.5t-225 148.5q-143 0 -230 -142.5t-87 -365.5 q0 -201 63.5 -364t151.5 -230v-119h-428z" />
<glyph unicode="&#x212e;" horiz-adv-x="1710" d="M68 682q0 293 229 502t556 209t559.5 -209t232.5 -502v-18h-1278q-10 0 -11 -9v-387q0 -27 17 -45q205 -209 483 -209q150 0 281 62.5t227 171.5h113q-106 -125 -271.5 -199t-351.5 -74q-328 0 -557 207t-229 500zM356 713q0 -12 11 -13h979q6 0 6 13v389q0 27 -17 47 q-205 201 -480 201t-480 -209q-18 -18 -19 -47v-381z" />
<glyph unicode="&#x2202;" horiz-adv-x="974" d="M74 436q0 229 109.5 370.5t262.5 141.5q92 0 159 -47t95 -100h2q2 16 3 69q0 211 -86.5 358.5t-212.5 147.5q-121 0 -226 -92l-53 150q129 106 301 106q193 0 326 -188.5t133 -548.5q0 -383 -123 -602t-346 -219q-162 0 -253 134t-91 320zM258 428q0 -123 48 -202 t128 -79h2q100 0 167 140.5t83 330.5q-20 63 -74.5 116.5t-132.5 53.5q-94 0 -157.5 -107.5t-63.5 -252.5z" />
<glyph unicode="&#x2206;" horiz-adv-x="1114" d="M51 0v121l404 1280h217l389 -1278v-123h-1010zM240 160h626l-202 641q-12 43 -53.5 174t-51.5 182h-6q-8 -45 -47 -168t-47 -164z" />
<glyph unicode="&#x220f;" horiz-adv-x="1228" d="M47 1190v178h1135v-178h-174v-1378h-189v1378h-409v-1378h-189v1378h-174z" />
<glyph unicode="&#x2211;" horiz-adv-x="956" d="M43 -57l436 649l-420 639v137h832v-164h-584v-6l381 -571l-422 -625v-6h654v-184h-877v131z" />
<glyph unicode="&#x2212;" horiz-adv-x="1179" d="M92 414v168h995v-168h-995z" />
<glyph unicode="&#x2215;" horiz-adv-x="327" d="M-322 -61l828 1486h145l-827 -1486h-146z" />
<glyph unicode="&#x2219;" horiz-adv-x="471" d="M94 605.5q0 58.5 41 100.5t100.5 42t100.5 -42t41 -100.5t-41 -99.5t-100.5 -41t-100.5 41t-41 99.5z" />
<glyph unicode="&#x221a;" horiz-adv-x="1021" d="M61 666l277 110l188 -645l35 -164l2 -2q0 6 8.5 69.5t16.5 102.5l303 1503h131l-383 -1919h-156l-262 881l-129 -49z" />
<glyph unicode="&#x221e;" horiz-adv-x="1409" d="M88 559q0 131 83 216t210 85q166 0 332 -205q100 113 155 152q84 53 179 53q119 0 195.5 -81t76.5 -212v-2q0 -137 -84 -221t-201 -84q-84 0 -159.5 48t-165.5 161q-86 -100 -164 -154.5t-176 -54.5q-115 0 -198 85t-83 214zM203 557q0 -78 52 -132t128 -54h2 q51 0 103.5 32.5t77.5 60.5l79 89q-53 70 -79.5 101.5t-81 65.5t-111.5 34q-80 0 -125 -55.5t-45 -141.5zM768 565q92 -111 147.5 -152.5t122.5 -41.5q76 0 121 58t45 130q0 88 -47 141.5t-123 53.5h-2q-33 0 -64.5 -12.5t-62.5 -38t-49 -44t-49 -53.5t-39 -41z" />
<glyph unicode="&#x222b;" horiz-adv-x="690" d="M41 -297l29 141q53 -18 71 -18q49 0 80 43q49 72 49 317q0 174 -12 499t-12 484q0 170 23.5 268.5t78.5 159.5q70 86 195 86q57 0 104 -22l-24 -137q-27 16 -60 16q-55 0 -90 -47q-51 -72 -51 -340q0 -154 12 -472.5t12 -492.5q0 -272 -71 -395q-59 -119 -209 -119 q-78 0 -125 29z" />
<glyph unicode="&#x2248;" horiz-adv-x="966" d="M72 334q39 84 104.5 135t142.5 51q31 0 64 -8t46 -14t46 -27l35 -18q8 -6 38 -23.5t42 -24t34.5 -13.5t41.5 -7q47 0 82.5 34t72.5 101l72 -59q-84 -188 -231 -189q-80 0 -199 74q-100 66 -156 66q-37 0 -69.5 -22.5t-49 -46.5l-45.5 -69zM72 662q39 84 104.5 135 t142.5 51q25 0 47.5 -4t45.5 -15l35 -16q13 -6 36 -20.5t29 -16.5q4 -4 22.5 -14t24.5 -13.5l20.5 -11.5t22.5 -11t19.5 -8t21.5 -5h21q49 0 84.5 32.5t72.5 102.5l72 -62q-84 -186 -231 -186q-78 0 -199 72q-98 63 -156 63q-53 0 -89 -34.5t-75 -98.5z" />
<glyph unicode="&#x2260;" horiz-adv-x="966" d="M86 313v115h289l108 254h-397v117h438l88 202l90 -36l-71 -166h248v-117h-291l-109 -254h400v-115h-443l-88 -204l-90 34l74 170h-246z" />
<glyph unicode="&#x2264;" horiz-adv-x="966" d="M88 6v119h793v-119h-793zM96 614v125l776 416v-141l-661 -334v-4l663 -336v-139z" />
<glyph unicode="&#x2265;" horiz-adv-x="966" d="M90 6v119h791v-119h-791zM100 201v139l662 334v4l-662 336v141l777 -416v-125z" />
<glyph unicode="&#x25ca;" horiz-adv-x="1021" d="M92 684l346 768h156l336 -768l-346 -768h-156zM262 688l213 -493q23 -68 31 -115h8q14 72 31 110l217 488l-213 487q-20 66 -33 121h-6q-18 -78 -35 -121z" />
<glyph unicode="&#xe000;" horiz-adv-x="1055" d="M0 1055h1055v-1055h-1055v1055z" />
</font>
</defs>
</svg>
